<svg version="1.2" xmlns="http://www.w3.org/2000/svg" viewBox="0 0 400 414" width="400" height="414">
	<style>
		.s0 { fill: #10b981 } 
		.s1 { fill: #0d9488 } 
	</style>
	<g id="svgg">
		<path id="path0" fill-rule="evenodd" class="s0" d="m207.5 20.79c0 10.29-13.55 14.03-18.67 5.14-3.34-5.8-0.08-13.19 6.54-14.79 6.3-1.53 12.13 3.1 12.13 9.64zm-18.63 36.26v1.07l0.78 0.46c0.43 0.25 1.16 0.6 1.63 0.78 0.48 0.18 2.62 1.14 4.76 2.14 2.14 1 3.94 1.81 3.99 1.81 0.05 0 1.11 0.46 2.36 1.01 1.25 0.56 2.81 1.25 3.48 1.54 2.03 0.89 5.74 2.59 8.19 3.76 1.29 0.61 2.39 1.11 2.45 1.11 0.06 0 1.11 0.46 2.32 1.01 1.22 0.56 3.11 1.41 4.2 1.89 1.09 0.48 2.8 1.25 3.79 1.72 1 0.47 3.33 1.52 5.18 2.32 3.54 1.55 3.79 1.66 7.76 3.49 3.37 1.55 8.62 3.89 8.74 3.89 0.14 0 6.73 3 10.4 4.74 1.66 0.78 3.64 1.7 4.4 2.03 2.64 1.16 3.86 1.68 3.94 1.68 0.21 0 5.93 2.82 6.2 3.06 0.43 0.39 0.38 0.5-0.43 1.02-1.51 0.95-4.34 2.76-5.45 3.49-2.69 1.76-3.07 1.78-5.72 0.28-1.34-0.76-5.22-2.57-6.56-3.06-0.52-0.2-1.02-0.41-1.12-0.48-0.09-0.08-0.68-0.35-1.29-0.6-0.62-0.26-3.06-1.37-5.44-2.46-2.37-1.09-5.05-2.32-5.95-2.72-3.47-1.54-13.74-6.18-15.26-6.89-1.07-0.5-3.08-1.38-5.35-2.33-0.95-0.4-2.54-1.14-3.53-1.66-1.62-0.83-3.27-1.58-8.28-3.78-0.81-0.35-2.87-1.28-4.57-2.07-4.76-2.2-4.48-2.07-11.05-4.91-1.8-0.78-3.93-1.75-4.74-2.17-3.39-1.73-3.73-1.77-5.11-0.52-5.15 4.65-14 2.85-17.69-3.61-4.35-7.62-0.51-16.75 7.91-18.79 6.92-1.67 15.07 4.68 15.07 11.75zm-71.76-1.93c0 0.04-0.23 0.2-0.52 0.35-0.65 0.33-0.69 0.19-0.04-0.16 0.54-0.3 0.56-0.3 0.56-0.19zm-9.14 5.1c0.11 0-0.51 0.48-0.91 0.7-0.52 0.28-0.33 0.03 0.26-0.35 0.31-0.19 0.6-0.35 0.65-0.35zm-3.01 1.93c-0.75 0.56-1.99 1.34-1.99 1.25 0-0.04 0.52-0.43 1.16-0.86 1.21-0.81 1.71-1.04 0.83-0.39zm-4.96 3.06c0.17 0-0.21 0.35-0.86 0.79-1.61 1.1-5.88 4.2-8.25 5.99-1.37 1.04-2.62 1.97-2.76 2.07-0.92 0.66 0.56-0.58 2.33-1.94 4.02-3.07 5.2-3.95 7.67-5.66 1-0.69 1.84-1.25 1.87-1.25zm-12.43 9.14c0.17 0-0.36 0.54-1.06 1.06-0.67 0.5-0.67 0.49 0.13-0.26 0.46-0.44 0.88-0.8 0.93-0.8zm100.34 26.58c0.16 0.8 0.32 1.63 0.36 1.85 0.12 0.55 1.25 1 3.79 1.52 1.13 0.23 3.31 0.76 4.83 1.18 1.51 0.43 3.22 0.89 3.79 1.03 0.57 0.14 1.89 0.49 2.93 0.79 1.05 0.29 2.33 0.65 2.85 0.79 0.52 0.14 1.57 0.44 2.33 0.67 0.76 0.23 2.7 0.74 4.31 1.13 1.61 0.4 3.86 0.99 5 1.32 1.14 0.33 3 0.82 4.14 1.09 1.14 0.26 3 0.72 4.14 1 1.14 0.29 2.83 0.7 3.75 0.91 1.6 0.37 2.72 0.85 2.72 1.16 0 0.09-0.95 0.41-2.11 0.72-1.17 0.32-3.36 0.98-4.88 1.48-1.52 0.5-3.25 1-3.84 1.11-0.59 0.1-1.4 0.31-1.81 0.46-2.35 0.85-4.99 1.05-6.51 0.5-0.65-0.23-2.71-0.81-4.6-1.29-6.34-1.62-11.53-2.99-14.46-3.84-0.66-0.19-1.79-0.48-2.5-0.65-1.73-0.42-2.95-0.78-4.4-1.29-1.58-0.57-1.71-0.56-2.28 0.19-2.06 2.71-5.85 5.34-8.17 5.68-0.42 0.06-1.2 0.22-1.75 0.35-4.02 1-10.64-1.35-13.73-4.86-7.63-8.67-2.56-23.11 8.75-24.92 7.9-1.26 15.88 4.22 17.35 11.92zm12.47 24.56c15.64 2.75 21.83 21.01 11.04 32.61-4.62 4.97-12.25 7.29-18.39 5.59-3.16-0.87-4.41-1.46-7.36-3.44-6.47-4.36-9.36-13.97-6.63-22.04 2.15-6.35 7.92-11.29 14.95-12.81 1.71-0.37 3.98-0.34 6.39 0.09zm-53.7 27.86c0.18 0 0.18 0-0.59 0.5l-0.61 0.39 0.52-0.44c0.29-0.25 0.59-0.45 0.68-0.45zm90.9 18.58c9.84 7.12 9.68 21.31-0.32 28.6-3.77 2.74-9.9 3.86-14.5 2.62-6.29-1.68-10.52-6.07-12.59-13.06-2.63-8.86 5.03-20.2 14.49-21.44 4.47-0.58 9.27 0.63 12.92 3.28zm12.78 44.18c8.16 5.18 9.31 17.05 2.27 23.6-11.8 10.97-29.39-0.76-24.51-16.34 1.25-3.96 6.28-8.5 10.34-9.3 0.56-0.12 1.3-0.27 1.63-0.35 2.75-0.61 7.16 0.42 10.27 2.39zm1.48 46.22c1.49 6.41-1.83 12.54-8.12 15.02l-1.47 0.58-2.3-0.11c-4.34-0.21-5.73-0.72-8.48-3.09-3.38-2.9-4.8-7.92-3.63-12.81 1.01-4.23 4.8-7.84 9.24-8.81 6.36-1.38 13.31 2.96 14.76 9.22zm-25.05 19.75c2.74 8.97-5.82 16.3-14.2 12.17-8.2-4.05-6.59-16.18 2.49-18.7 4.51-1.25 10.33 2 11.71 6.53zm-31.64 11.86c-1.81 3.62-4.68 5.27-8.48 4.86-9.29-0.99-9.65-15.04-0.44-16.5 6.7-1.06 11.89 5.72 8.92 11.64zm-37.6 8.28c4.23 4.52 0.57 11.51-5.62 10.73-7.39-0.94-7.03-11.1 0.45-12.7 1.44-0.31 3.93 0.64 5.17 1.97zm-17.96 14.27c0.84 1.17 1.73 3.87 1.6 4.87-0.13 0.96 0.14 1.4 1.16 1.92 0.99 0.51 5.12 2.22 5.36 2.22 0.1 0 0.42 0.12 0.71 0.27 0.28 0.15 0.9 0.43 1.38 0.62 0.47 0.19 1.34 0.57 1.92 0.84 0.58 0.28 1.12 0.51 1.21 0.51 0.24 0 2.86 1.02 3.51 1.37 0.33 0.18 1.87 0.84 3.41 1.46 1.55 0.63 3.26 1.36 3.8 1.63 0.54 0.27 1.17 0.55 1.41 0.63 0.24 0.07 0.91 0.35 1.5 0.62 0.59 0.27 1.16 0.5 1.27 0.5 0.1 0 0.74 0.27 1.42 0.6 0.67 0.33 1.33 0.6 1.45 0.6 0.13 0 1.1 0.4 2.17 0.88 1.71 0.78 4.93 2.13 7.46 3.12 0.47 0.19 1.25 0.52 1.72 0.74 0.48 0.22 1.06 0.44 1.31 0.5 2.03 0.48 2.74 1.13 4.63 4.28 0.69 1.17 1.88 3.07 2.62 4.21 3.47 5.37 3.59 6.21 0.66 4.8-0.7-0.34-1.75-0.8-2.32-1.01-0.57-0.22-2.47-1.04-4.22-1.81-1.76-0.78-4.17-1.81-5.35-2.28-1.19-0.48-3.05-1.24-4.15-1.7-1.09-0.46-2.84-1.19-3.88-1.61-1.04-0.42-3.33-1.4-5.08-2.18-1.76-0.77-4.4-1.9-5.87-2.5-1.47-0.6-4.4-1.8-6.51-2.66-2.12-0.87-4.52-1.87-5.35-2.24-0.83-0.36-2.75-1.19-4.26-1.83-1.52-0.64-3.45-1.47-4.29-1.85-2-0.9-2.74-0.85-3.9 0.29-2.17 2.13-7.04 2.71-9.95 1.2-0.62-0.32-1.35-0.59-1.64-0.59-0.69 0-1.09-0.23-2.22-1.27-5.85-5.45-5.26-14.43 1.25-18.67 1.31-0.86 1.52-0.95 3.41-1.43 4.58-1.17 9.65 0.81 12.65 4.95zm163.41 11.59c0.13 0 0 0.15-0.68 0.79l-0.73 0.68 0.68-0.73c0.37-0.41 0.7-0.74 0.73-0.74zm-1.67 1.57c0.34 0-4.25 3.91-8.17 6.97-2.6 2.03-10.12 7.17-10.12 6.93 0-0.05 1.05-0.79 2.33-1.65 4.5-3.01 10.36-7.47 14.04-10.66 1.01-0.87 1.87-1.59 1.92-1.59zm-178.51 16.34c0.27 1.47 0.51 1.7 2.01 2.01 0.68 0.14 1.38 0.33 1.55 0.42 0.17 0.09 0.85 0.33 1.51 0.53 0.66 0.21 1.44 0.47 1.72 0.6 0.62 0.26 4.88 1.79 6.47 2.33 3.17 1.06 5.64 1.94 6.93 2.47 0.79 0.33 2.22 0.85 3.16 1.16 0.95 0.31 2.35 0.82 3.11 1.13 0.76 0.3 2.66 0.99 4.22 1.51 1.57 0.53 3.7 1.26 4.75 1.64 1.04 0.37 2.52 0.87 3.27 1.11 0.76 0.24 2.35 0.8 3.54 1.25 1.19 0.44 3.21 1.17 4.49 1.63 1.29 0.45 2.49 0.9 2.68 1 0.18 0.09 1.69 0.62 3.35 1.16 1.66 0.54 3.45 1.16 3.97 1.38 0.52 0.21 2.11 0.76 3.54 1.21 1.42 0.46 3.55 1.2 4.74 1.65 1.19 0.45 2.97 1.1 3.97 1.43 0.99 0.33 2.9 0.99 4.23 1.46 1.34 0.46 2.71 0.9 3.05 0.96 1.16 0.22 1.42 1.46 1.16 5.55-0.29 4.64-0.35 4.77-1.91 4.15-1.81-0.71-8.36-3.05-12.22-4.36-2.31-0.78-6.14-2.15-10.1-3.6-1.7-0.62-4.61-1.66-6.46-2.31-3.66-1.29-9.23-3.29-10.61-3.81-0.48-0.18-2.77-0.99-5.09-1.79-2.33-0.8-6.09-2.13-8.37-2.95-2.27-0.82-4.87-1.76-5.78-2.07-0.9-0.31-2.64-0.94-3.88-1.38-1.23-0.45-4.14-1.46-6.46-2.26-4.64-1.58-6.54-2.25-7.86-2.79-0.8-0.32-1.41-0.45-1.93-0.4-0.11 0.01-0.85 0.62-1.64 1.36-2.4 2.26-4.59 3.14-8.42 3.39-7.46 0.5-14.14-5.87-14.13-13.48 0.01-6.23 4.91-12.34 10.77-13.42 8.48-1.55 14.97 3.17 16.67 12.13zm159.27-1.86c-0.05 0.09-0.35 0.3-0.65 0.45-0.63 0.32-0.53 0.16 0.18-0.3 0.57-0.37 0.61-0.38 0.47-0.15zm-176.01 30.22c0.23 0.23 0.89 0.79 1.46 1.25 3.22 2.59 4.51 8.32 2.7 12.01q-1.38 2.81-2.4 3.83c-7.9 8-21.51 0.41-18.93-10.56 0.94-3.96 5.07-7.73 9.11-8.3 2.81-0.39 6.72 0.47 8.06 1.77z"/>
		<path id="path1" fill-rule="evenodd" class="s1" d="m197.54 10.82c0.26 0.04 0.69 0.04 0.95 0 0.26-0.04 0.05-0.07-0.47-0.07-0.52 0-0.74 0.03-0.48 0.07zm7.2 2.89c0.33 0.33 0.63 0.61 0.67 0.61 0.05 0-0.17-0.28-0.49-0.61-0.33-0.33-0.63-0.6-0.67-0.6-0.05 0 0.17 0.27 0.49 0.6zm2.81 7.16c0 0.43 0.03 0.6 0.08 0.39 0.04-0.21 0.04-0.56 0-0.78-0.05-0.21-0.08-0.04-0.08 0.39zm-17.81 6.61c0 0.03 0.25 0.28 0.56 0.56l0.56 0.51-0.51-0.56c-0.47-0.53-0.61-0.64-0.61-0.51zm6.51 3.52c0.21 0.04 0.56 0.04 0.78 0 0.21-0.04 0.03-0.08-0.39-0.08-0.43 0-0.6 0.04-0.39 0.08zm1.98-0.01c0.17 0.05 0.44 0.05 0.61 0 0.16-0.04 0.03-0.08-0.31-0.08-0.33 0-0.46 0.04-0.3 0.08zm-47.99 10.92c-3.73 0.95-13.36 4.11-13.63 4.46-0.05 0.07-0.16 0.12-0.26 0.12-0.37 0-4.57 1.69-4.57 1.84q-0.01 0.14-0.15 0.06c-0.15-0.09-3.47 1.21-3.64 1.43-0.05 0.06-0.21 0.14-0.35 0.16-0.5 0.1-3.1 1.31-3.1 1.44 0 0.08-0.12 0.1-0.26 0.04-0.15-0.05-0.3 0.02-0.36 0.18-0.06 0.15-0.18 0.23-0.26 0.18-0.09-0.05-0.16-0.01-0.16 0.1 0 0.1-0.07 0.15-0.16 0.09-0.19-0.11-2.3 0.9-2.4 1.14-0.03 0.08-0.13 0.11-0.21 0.05-0.09-0.05-0.16-0.01-0.16 0.1 0 0.11-0.08 0.14-0.17 0.08-0.1-0.05-0.18-0.01-0.18 0.09 0 0.11-0.07 0.15-0.17 0.09-0.09-0.06-0.17-0.02-0.17 0.08 0 0.11-0.07 0.15-0.16 0.1-0.09-0.05-0.28 0.02-0.42 0.17-0.15 0.14-0.3 0.24-0.33 0.21-0.1-0.09-1.51 0.61-1.51 0.77q-0.01 0.13-0.15 0.06c-0.08-0.05-0.2 0.03-0.26 0.18-0.06 0.16-0.22 0.23-0.37 0.17q-0.24-0.08-0.16 0.07c0.09 0.15-0.14 0.25-0.48 0.19-0.07-0.01-0.13 0.07-0.13 0.18q-0.01 0.18-0.1 0.1c-0.15-0.15-1.79 0.7-1.79 0.92 0 0.1-0.08 0.13-0.18 0.08-0.09-0.06-0.17-0.02-0.17 0.1q-0.01 0.18-0.11 0.1c-0.06-0.06-0.22 0.02-0.36 0.19q-0.21 0.25-0.14 0.08c0.14-0.28-1.97 0.92-2.28 1.3q-0.25 0.3-0.13 0.04 0.08-0.21-0.16 0.07c-0.15 0.19-0.27 0.27-0.27 0.19 0-0.09-0.12-0.01-0.27 0.18-0.15 0.18-0.22 0.23-0.15 0.1 0.09-0.19 0.05-0.2-0.25-0.04-0.2 0.11-0.36 0.24-0.36 0.29 0 0.05 0.09 0.03 0.19-0.03q0.19-0.12 0.08 0.07c-0.07 0.12-0.19 0.17-0.27 0.12-0.21-0.13-0.71 0.09-0.6 0.27q0.06 0.13-0.16 0.05c-0.15-0.05-0.33 0.06-0.45 0.28-0.11 0.21-0.31 0.33-0.44 0.28-0.13-0.05-0.29-0.01-0.36 0.1q-0.1 0.18 0.08 0.07c0.11-0.07 0.2-0.09 0.2-0.04 0 0.05-0.16 0.18-0.37 0.29-0.29 0.16-0.34 0.15-0.24-0.04 0.07-0.13-0.05-0.04-0.25 0.2-0.21 0.24-0.31 0.32-0.24 0.17 0.17-0.31-0.62 0.17-1.16 0.71-0.19 0.19-0.43 0.29-0.53 0.22q-0.18-0.1-0.08 0.07c0.14 0.22-0.5 0.62-0.74 0.47-0.09-0.05-0.22 0-0.29 0.11q-0.11 0.19 0.08 0.08c0.42-0.26 0.17 0.05-0.28 0.34-0.46 0.3-0.46 0.3-0.21-0.01 0.25-0.31 0.24-0.31-0.22-0.01-0.26 0.17-0.47 0.38-0.47 0.47q-0.02 0.14-0.16 0.06c-0.09-0.05-0.44 0.17-0.77 0.51-0.63 0.62-0.9 0.78-0.71 0.39 0.07-0.12-0.05-0.02-0.26 0.22-0.21 0.23-0.32 0.32-0.25 0.19 0.1-0.18 0.05-0.19-0.25-0.03-0.2 0.1-0.36 0.23-0.36 0.28 0 0.05 0.1 0.03 0.21-0.04q0.22-0.13-0.02 0.17c-0.26 0.32-0.63 0.4-0.43 0.09q0.11-0.19-0.08-0.08c-0.11 0.07-0.16 0.2-0.11 0.28 0.14 0.23-0.72 0.74-0.99 0.59q-0.19-0.11-0.09 0.01c0.07 0.08 0.04 0.25-0.07 0.37-0.23 0.29-0.56 0.31-0.39 0.04q0.11-0.19-0.08-0.08c-0.11 0.07-0.16 0.19-0.11 0.27 0.05 0.08-0.3 0.42-0.77 0.77-0.92 0.65-1.13 0.75-0.93 0.4q0.1-0.19-0.04-0.07c-0.08 0.08-0.15 0.23-0.15 0.33 0 0.1-0.11 0.22-0.24 0.26q-0.25 0.09-0.1-0.15c0.12-0.21 0.1-0.21-0.15 0-0.34 0.27-0.39 0.44-0.08 0.25q0.22-0.13-0.02 0.17c-0.27 0.33-0.62 0.39-0.43 0.07q0.1-0.19-0.04-0.07c-0.08 0.08-0.15 0.23-0.15 0.33 0 0.1-0.11 0.22-0.24 0.27q-0.25 0.08-0.1-0.16 0.12-0.22-0.02-0.1c-0.09 0.08-0.16 0.2-0.16 0.26-0.01 0.22-0.28 0.55-0.45 0.55-0.1 0-0.12-0.09-0.05-0.2 0.07-0.12-0.16 0.01-0.51 0.28-0.78 0.59-0.83 0.77-0.07 0.26 0.47-0.32 0.45-0.28-0.13 0.24-0.7 0.62-1.07 0.81-0.84 0.41q0.1-0.19-0.04-0.07c-0.08 0.08-0.15 0.23-0.15 0.33 0 0.1-0.11 0.22-0.24 0.27q-0.25 0.08-0.1-0.16c0.12-0.2 0.1-0.2-0.15 0-0.34 0.27-0.39 0.44-0.07 0.26q0.21-0.13-0.03 0.17c-0.13 0.16-0.34 0.26-0.46 0.21-0.12-0.04-0.32 0.05-0.45 0.21-0.21 0.27-0.2 0.27 0.12 0.03 0.32-0.24 0.33-0.24 0.1 0.05-0.13 0.17-0.34 0.28-0.46 0.23-0.12-0.05-0.36 0.09-0.53 0.29l-0.32 0.38 0.43-0.34 0.43-0.35-0.33 0.39c-0.18 0.22-0.43 0.36-0.55 0.32-0.12-0.05-0.32 0.05-0.44 0.21q-0.32 0.38 0.07 0.05c0.17-0.13 0.3-0.19 0.3-0.14 0 0.05-0.25 0.27-0.56 0.49-0.46 0.33-0.51 0.34-0.3 0.06q0.23-0.3-0.39 0.16c-0.35 0.27-0.64 0.52-0.64 0.57 0 0.05 0.13-0.01 0.3-0.14 0.16-0.13 0.07 0.02-0.21 0.32-0.49 0.54-0.93 0.77-0.67 0.35 0.07-0.12-0.28 0.12-0.77 0.54-0.49 0.42-0.9 0.79-0.9 0.84 0 0.05 0.18-0.06 0.39-0.24l0.39-0.33-0.33 0.39c-0.18 0.21-0.44 0.39-0.58 0.39-0.81 0-14.25 12.81-17.65 16.82-0.8 0.94-2.21 2.59-3.13 3.65-15.01 17.46-26.7 38.57-33.55 60.6-1.92 6.18-2.41 7.86-3.14 10.78-1.14 4.6-2.72 12.96-3.19 16.91-0.14 1.13-0.45 3.7-0.68 5.7-0.71 5.9-0.79 7.77-0.79 17.92 0 12.94 0.18 16.48 1.22 23.98 1.39 10.09 3.42 20.04 5.33 26.13 0.37 1.19 0.98 3.17 1.35 4.4 0.95 3.15 2.8 8.32 4.12 11.47 2.53 6.07 2.88 6.89 3.71 8.71 6.69 14.68 15.7 28.39 28.09 42.78 4.28 4.96 13.13 13.71 13.88 13.71 0.32 0 0.74-0.65 1.02-1.59 0.13-0.41 0.35-0.97 0.5-1.26 0.14-0.28 0.62-1.29 1.07-2.24 1.56-3.32 1.86-3.9 2.28-4.35 0.24-0.25 0.65-0.82 0.92-1.26 0.27-0.44 0.96-1.22 1.53-1.75 1.44-1.31 1.28-2.44-0.54-3.98-0.48-0.4-2.12-2.08-3.65-3.74-1.54-1.66-3.57-3.84-4.52-4.85-1.61-1.71-2.27-2.5-5.64-6.74-1.63-2.05-5.41-7.08-6.02-8-3.36-5.1-5.18-8.03-7.69-12.42-1.93-3.35-4.33-8.16-5.91-11.81-0.31-0.72-0.82-1.84-1.13-2.51-3.37-7.11-7.43-19.2-9.29-27.59-3.07-13.92-4.77-35.1-3.74-46.61 1.21-13.59 3.38-25.19 6.66-35.67 0.44-1.42 0.88-2.83 0.96-3.14 0.58-2 3.22-8.88 5.06-13.16 4.67-10.86 11.75-23.04 18.28-31.48 7.5-9.7 13.14-15.86 20.52-22.43 2.99-2.67 8.86-7.52 11.14-9.22 13.28-9.86 28.38-17.95 42.9-23 4.06-1.41 3.84-1.2 3.84-3.7 0.01-5.27 1.24-9.87 3.89-14.58 1.35-2.39 1.43-2.34-2.5-1.33zm34.67 6.61c0 0.03 0.25 0.28 0.56 0.56l0.56 0.51-0.51-0.56c-0.47-0.52-0.61-0.64-0.61-0.51zm120.33 12.41c-1.26 5.4-2.74 9.37-5.57 15.04-4.88 9.74-7.48 13.17-15.67 20.7-8.51 7.82-23.13 15.76-39.07 21.23-8.16 2.8-10.57 3.59-12.68 4.15-1.23 0.34-2.62 0.72-3.1 0.84-0.47 0.13-2.26 0.68-3.97 1.21-1.7 0.54-3.64 1.13-4.31 1.31-4.81 1.32-4.46 1.12-3.58 2.09 0.85 0.93 2.67 3.35 3 3.96 0.13 0.26 0.48 0.88 0.78 1.38 1.39 2.32 2.95 9.28 2.84 12.61-0.04 1.34 0.08 1.43 1.02 0.72 0.7-0.53 1.63-0.96 3.53-1.62 5.45-1.91 6.11-2.17 13.8-5.35 9.38-3.89 21.99-10.3 27.94-14.2 9.72-6.37 18.53-14.79 23.59-22.54 5.11-7.84 8.69-16.54 10.29-25.01 0.1-0.53 0.37-1.88 0.6-3.02 1.12-5.43 1.9-15.33 1.23-15.55-0.1-0.03-0.4 0.89-0.67 2.05zm-96.53 6.25c0.24 0.14 0.51 0.25 0.6 0.25 0.1 0-0.02-0.11-0.25-0.25-0.24-0.13-0.51-0.24-0.61-0.24-0.09 0 0.02 0.11 0.26 0.24zm-25.36 0.74l-0.6 0.64 0.65-0.59c0.35-0.33 0.64-0.62 0.64-0.65 0-0.13-0.14-0.01-0.69 0.6zm6.21 0.83c0 0.1 3.19 1.59 4.4 2.06 0.57 0.22 1.81 0.76 2.76 1.2 0.95 0.45 1.96 0.91 2.25 1.05 0.28 0.12 1.37 0.63 2.41 1.12 1.04 0.49 2.48 1.16 3.19 1.48 0.71 0.33 1.53 0.7 1.81 0.84 1.41 0.65 4.39 1.98 4.46 1.98 0.05 0 0.78 0.32 1.61 0.71 0.84 0.39 1.99 0.9 2.56 1.14 0.57 0.24 1.61 0.73 2.33 1.08 0.71 0.36 2.07 0.98 3.01 1.38 0.95 0.4 2.39 1.02 3.19 1.38 0.81 0.36 2.13 0.95 2.94 1.3 1.37 0.6 3.5 1.57 5.09 2.33 0.37 0.18 1.42 0.65 2.32 1.04 0.9 0.39 2.19 0.97 2.85 1.28 4.36 2.07 7.93 3.71 8.07 3.71 0.05 0 1.16 0.51 2.46 1.13 1.3 0.62 3.23 1.49 4.29 1.92 1.05 0.43 2.2 0.93 2.55 1.11 0.35 0.18 0.74 0.32 0.86 0.32 0.26-0.01-0.72-0.52-2.19-1.14-0.57-0.24-2.97-1.34-5.35-2.43-2.37-1.1-5.05-2.32-5.95-2.72-3.47-1.54-13.74-6.18-15.26-6.89-1.07-0.5-3.08-1.38-5.35-2.33-0.95-0.4-2.54-1.15-3.53-1.66-1.62-0.83-3.21-1.55-8.28-3.78-0.81-0.35-2.4-1.07-3.54-1.6-4.5-2.07-6.6-3.03-7.5-3.4-0.52-0.22-2.64-1.14-4.7-2.04-2.07-0.9-3.76-1.6-3.76-1.57zm24.76 0.95c1.14 0.56 2.14 1.02 2.24 1.01 0.09 0-0.79-0.46-1.97-1.03-1.17-0.57-2.18-1.02-2.24-1.02-0.06 0.01 0.83 0.48 1.97 1.04zm-40.62 0.4c0.62 0.26 4.4 0.34 5.42 0.12 0.28-0.05-0.73-0.1-2.24-0.1-1.51 0-2.99-0.06-3.27-0.13-0.44-0.12-0.43-0.1 0.09 0.11zm43.13 0.69c0.09 0.09 3.6 1.69 6.2 2.83 1.09 0.48 2.8 1.25 3.79 1.72 1 0.47 3.33 1.52 5.18 2.32 3.54 1.55 3.79 1.66 7.76 3.49 4.06 1.87 8.5 3.83 8.97 3.95l0.43 0.11-0.43-0.2c-0.24-0.12-1.64-0.75-3.11-1.4-1.47-0.66-3.1-1.39-3.62-1.63-2.69-1.25-5.72-2.61-8.19-3.7-3.67-1.61-5.63-2.5-8.07-3.66-1.12-0.53-2.08-0.97-2.13-0.97-0.05 0-0.53-0.2-1.07-0.45-0.54-0.25-1.36-0.6-1.83-0.78-0.48-0.19-1.06-0.45-1.3-0.59-0.86-0.48-2.81-1.27-2.58-1.04zm101.27 14.81c-0.2 0.49-0.71 1.91-1.13 3.15-1.11 3.26-2.81 7.87-3.57 9.65-1.44 3.43-1.52 3.16 2.25 7.27 3.03 3.28 4.35 4.94 8.91 11.1 12.44 16.8 19.97 32.72 25.68 54.25 6.85 25.83 6.75 53.88-0.28 80.38-1.73 6.54-4.07 13.43-6.47 19.02-0.7 1.64-1.27 3.01-1.27 3.05 0 0.32-4.16 8.75-6.09 12.34-8.19 15.27-18.75 28.85-31.77 40.86-1.61 1.48-3.2 2.97-3.54 3.3l-0.62 0.6 0.61-0.51q0.63-0.53-0.24 0.38c-0.81 0.86-1.45 1.27-0.94 0.61 0.13-0.17 0.02-0.12-0.24 0.11-0.26 0.23-0.43 0.46-0.38 0.51 0.11 0.11-0.79 1.06-1.01 1.06-0.09 0-0.02-0.17 0.16-0.39l0.33-0.39-0.38 0.33c-0.21 0.17-0.36 0.39-0.35 0.47 0.02 0.08-0.97 0.97-2.2 1.96-2.13 1.72-2.83 2.18-2.31 1.51 0.22-0.27 0.21-0.28-0.06-0.06-0.17 0.13-0.27 0.29-0.22 0.36 0.1 0.17-0.42 0.62-1.83 1.62-1.16 0.81-1.48 0.96-1.26 0.6q0.12-0.19-0.08-0.07c-0.12 0.07-0.17 0.18-0.12 0.23 0.12 0.12-0.23 0.56-0.45 0.56-0.09 0-0.1-0.1-0.04-0.22q0.11-0.19-0.03-0.07c-0.09 0.08-0.16 0.23-0.16 0.33 0 0.1-0.1 0.22-0.24 0.27q-0.24 0.08-0.1-0.16 0.12-0.22-0.02-0.1c-0.08 0.08-0.15 0.24-0.15 0.35 0 0.11-0.14 0.2-0.3 0.2-0.17 0-0.29 0.05-0.26 0.11 0.06 0.15-0.41 0.67-0.61 0.67-0.09 0-0.06-0.14 0.07-0.3 0.21-0.28 0.21-0.29-0.07-0.07-0.16 0.13-0.26 0.29-0.21 0.36 0.04 0.08-0.35 0.42-0.87 0.76-0.99 0.66-1.22 0.76-1.01 0.43q0.11-0.19-0.08-0.08c-0.11 0.07-0.16 0.2-0.11 0.28 0.12 0.2-0.56 0.56-0.79 0.42q-0.15-0.07-0.12 0.12c0.02 0.13-0.09 0.23-0.25 0.24-0.15 0-0.35 0.07-0.43 0.15q-0.11 0.14 0.08 0.03c0.12-0.07 0.21-0.08 0.21-0.03 0 0.05-0.16 0.18-0.36 0.29-0.28 0.14-0.34 0.14-0.24-0.02 0.1-0.16 0.04-0.16-0.24-0.01-0.2 0.11-0.36 0.28-0.36 0.38q-0.02 0.15-0.16 0.08c-0.08-0.06-0.2 0.01-0.25 0.15-0.05 0.14-0.34 0.37-0.64 0.53-0.4 0.21-0.51 0.22-0.43 0.05 0.07-0.12-0.04-0.03-0.25 0.2-0.21 0.24-0.33 0.34-0.27 0.23 0.06-0.11-0.24-0.01-0.67 0.23-0.43 0.24-0.78 0.52-0.78 0.62q-0.01 0.16-0.12 0.08c-0.06-0.07-0.22 0.02-0.35 0.18q-0.22 0.26-0.15 0.11c0.05-0.11-0.53 0.15-1.28 0.58-0.76 0.43-1.38 0.85-1.38 0.94 0 0.09-0.08 0.11-0.17 0.05-0.1-0.06-0.18-0.02-0.18 0.09 0 0.1-0.07 0.14-0.17 0.09-0.09-0.06-0.17-0.03-0.17 0.07 0 0.1-0.06 0.17-0.13 0.15-0.22-0.06-1.94 0.89-1.94 1.07 0 0.09-0.06 0.16-0.13 0.15-0.33-0.05-0.57 0.04-0.49 0.18 0.06 0.08-0.02 0.2-0.17 0.25q-0.24 0.08-0.16-0.06c0.15-0.24-2.54 1.2-2.78 1.49-0.1 0.12-0.24 0.18-0.3 0.11q-0.1-0.08-0.11 0.12-0.01 0.2-0.11 0.12c-0.12-0.12-3.23 1.4-3.31 1.63-0.03 0.08-0.13 0.11-0.22 0.05q-0.14-0.07-0.16 0.05c0 0.08-0.13 0.16-0.3 0.17-0.16 0.02-1.35 0.51-2.63 1.09-10.07 4.59-23.99 9.08-33.66 10.86-2.99 0.55-2.73 0.28-2.73 3 0 1.27-0.11 3.39-0.25 4.7-0.14 1.32-0.3 3.48-0.36 4.81-0.06 1.33-0.14 2.84-0.17 3.36-0.11 1.59 0.31 1.78 2.83 1.31 0.72-0.14 2.13-0.38 3.12-0.53 9.53-1.46 21.55-5 31.57-9.28 8.34-3.57 16.86-7.72 21.47-10.46 0.76-0.45 2.08-1.23 2.93-1.73 18.18-10.74 37.62-28.23 49.73-44.75 0.83-1.12 1.99-2.7 2.58-3.49 16.87-22.6 29.54-55.38 31.82-82.34 0.38-4.57 0.31-36.25-0.09-40.28-0.87-8.63-3.45-21.09-6.15-29.75-0.38-1.19-1.04-3.31-1.48-4.72-7.48-23.93-23.28-49.42-42.54-68.63-2.35-2.35-2.21-2.29-2.7-1.12zm-66.63 0.75c1.08 0.51 2 0.9 2.03 0.87 0.07-0.07-3.67-1.84-3.86-1.83-0.08 0.01 0.75 0.44 1.83 0.96zm3.38 1.54c0.66 0.32 1.29 0.58 1.38 0.58 0.1 0-0.4-0.27-1.1-0.6-0.7-0.32-1.32-0.58-1.38-0.58-0.06 0.01 0.44 0.28 1.1 0.6zm1.65 0.66c0.18 0.16 1.2 0.63 1.2 0.55 0-0.1-0.96-0.61-1.14-0.61q-0.11 0-0.06 0.06zm1.8 0.92c0.97 0.54 6.01 2.81 6.07 2.75 0.06-0.06-0.54-0.37-2.32-1.17-0.45-0.2-1.55-0.71-2.43-1.12-1.64-0.76-2.27-0.98-1.32-0.46zm7.85 3.57c0.24 0.13 0.62 0.28 0.86 0.34 0.24 0.06 0.12-0.04-0.26-0.22-0.78-0.38-1.26-0.47-0.6-0.12zm-81.93 0.71c0.32 0.33 0.62 0.6 0.67 0.6 0.05 0-0.18-0.27-0.5-0.6-0.32-0.33-0.62-0.61-0.67-0.61-0.05 0 0.18 0.28 0.5 0.61zm71.08 4.63c0.17 0.16 2.97 1.33 3.02 1.27 0.04-0.04-0.59-0.35-1.39-0.7q-1.95-0.85-1.63-0.57zm4.65 2.07c0.18 0.16 1.2 0.63 1.2 0.55 0-0.1-0.96-0.61-1.14-0.61q-0.11 0-0.06 0.06zm-62.71 5.11c0.19 0.08 0.46 0.15 0.6 0.15q0.25 0-0.08-0.15c-0.19-0.08-0.46-0.14-0.61-0.14q-0.24 0 0.09 0.14zm0.97 0.26c0.05 0.04 0.85 0.27 1.8 0.5 0.94 0.24 2.26 0.59 2.92 0.78 1.66 0.49 1.85 0.43 0.26-0.09-1.83-0.59-5.18-1.4-4.98-1.19zm7.07 1.88c0.13 0.14 2.08 0.65 2.17 0.56 0.05-0.05-0.25-0.15-1.93-0.58-0.19-0.05-0.3-0.04-0.24 0.02zm3.91 1.13c0.6 0.27 5.93 1.58 6.13 1.51 0.15-0.05-4.43-1.25-6.09-1.59-0.42-0.09-0.42-0.09-0.04 0.08zm7.13 1.81c0.1 0.1 4.79 1.41 5.5 1.54 0.92 0.16 0.15-0.09-2.77-0.91-2.4-0.68-2.89-0.79-2.73-0.63zm-30.74 1.95l-0.41 0.48 0.43-0.38c0.23-0.2 0.58-0.4 0.77-0.45 0.34-0.08 0.34-0.08-0.01-0.1-0.2-0.01-0.55 0.19-0.78 0.45zm-23.36 1.94c0.38 0.38 0.72 0.69 0.77 0.69 0.04 0-0.22-0.31-0.59-0.69-0.37-0.38-0.71-0.69-0.76-0.69-0.05 0 0.21 0.31 0.58 0.69zm21.73 0.05l-0.51 0.56 0.56-0.51c0.52-0.47 0.64-0.61 0.51-0.61-0.03 0-0.28 0.25-0.56 0.56zm11.65 0.31c0.56 0.26 2.77 0.85 3.11 0.83 0.22-0.01-1.74-0.59-3.11-0.92l-0.43-0.11zm3.99 1.11c0.13 0.12 7.42 2.05 11.71 3.09 0.61 0.15 1.31 0.32 1.55 0.38 0.24 0.07 0.38 0.07 0.33 0-0.06-0.06-1.73-0.53-3.71-1.04-1.99-0.5-4.99-1.28-6.69-1.72-3.16-0.82-3.33-0.85-3.19-0.71zm-34.26 0.89c0.37 0.29 1.83 0.96 1.91 0.88 0.03-0.03-0.47-0.3-1.1-0.6-0.64-0.31-1-0.43-0.81-0.28zm14.18 0.67c-0.45 0.24-0.81 0.47-0.81 0.52 0 0.07 1.7-0.73 1.88-0.89 0.21-0.2-0.35 0-1.07 0.37zm45.84 0.17c-0.43 0.21-0.44 0.23-0.08 0.15 0.49-0.12 1.04-0.4 0.77-0.4-0.09 0-0.4 0.12-0.69 0.25zm-57.44 0.4c0.81 0.78 6.08 1.27 8.11 0.75 0.76-0.19 1.2-0.36 0.98-0.36-0.23-0.01-0.87 0.1-1.43 0.25-1.47 0.38-5.61 0.03-7.33-0.62-0.28-0.1-0.42-0.11-0.33-0.02zm9.92 0.2c-0.35 0.11-0.37 0.14-0.08 0.15 0.19 0.01 0.46-0.06 0.6-0.15 0.3-0.19 0.09-0.19-0.52 0zm42.52 0.78c-1.3 0.46-1.04 0.43 0.86-0.09 0.67-0.18 1.02-0.33 0.78-0.33-0.24 0-0.97 0.19-1.64 0.42zm-3.79 0.8c-0.38 0.09-1.02 0.14-1.41 0.11-0.39-0.03-0.68 0.01-0.64 0.08 0.13 0.2 1.59 0.13 2.74-0.13 0.62-0.14 0.83-0.23 0.51-0.23-0.28 0-0.82 0.08-1.2 0.17zm-20.31 5.1c0.21 0.04 0.52 0.04 0.69-0.01 0.16-0.04-0.01-0.07-0.39-0.07-0.38 0-0.52 0.04-0.3 0.08zm2.56 0.24c0.68 0.07 1.76 0.25 2.42 0.39 2.04 0.43 2.24 0.45 1.44 0.19-1.05-0.35-3.55-0.78-4.4-0.75q-0.72 0.02 0.54 0.17zm-14.69 5.2l-0.51 0.56 0.56-0.51c0.52-0.47 0.64-0.61 0.51-0.61-0.03 0-0.28 0.25-0.56 0.56zm-15.08 11.07c-0.91 0.41-3.51 1.55-5.8 2.55-4.08 1.77-8.52 3.99-8.52 4.25 0 0.08-0.1 0.14-0.22 0.14-0.31 0-2.2 1.09-2.2 1.27 0 0.09-0.16 0.24-0.36 0.35-0.3 0.16-0.34 0.15-0.25-0.04q0.09-0.19-0.11 0.04c-0.23 0.28-0.33 0.33-0.67 0.33q-0.15 0.02-0.09 0.15c0.05 0.08-0.01 0.14-0.14 0.14-0.24 0-1.48 0.72-1.48 0.86q0.02 0.06 0.17-0.03 0.16-0.09 0.17-0.01c0 0.05-0.16 0.18-0.36 0.28-0.28 0.15-0.34 0.15-0.24 0 0.07-0.12-0.27 0.05-0.74 0.37-0.48 0.31-0.82 0.65-0.77 0.74q0.08 0.15-0.04 0.05c-0.16-0.15-0.82 0.18-0.71 0.35 0.04 0.07-0.2 0.31-0.53 0.53-0.34 0.22-0.55 0.3-0.47 0.18 0.19-0.32-0.99 0.52-1.33 0.93-0.16 0.2-0.42 0.37-0.58 0.4-0.31 0.04-0.87 0.48-1.64 1.27-0.24 0.25-0.36 0.33-0.26 0.19 0.09-0.15-0.29 0.11-0.86 0.58-0.57 0.46-1.02 0.9-1 0.98q0.03 0.13-0.1 0.11c-0.23-0.07-2.44 1.76-2.39 1.99 0.02 0.1-0.08 0.2-0.22 0.21-0.14 0-0.24 0.11-0.21 0.23q0.03 0.2-0.11 0.13c-0.68-0.42-7.85 7.82-10.55 12.13-15.2 24.25-14.89 51.56 0.91 80.05 3.91 7.04 9.42 15.69 13.09 20.53 1.18 1.56 3.15 4.16 4.37 5.77 1.22 1.61 3.27 4.25 4.56 5.85 1.29 1.61 3.08 3.87 3.98 5.02 0.9 1.15 2.31 2.9 3.14 3.89 1.49 1.79 2.25 2.72 6.31 7.78 1.99 2.47 2.92 3.58 5.99 7.11 1.17 1.36 6.44 7.77 8.37 10.2 5.28 6.64 7.54 9.53 8.38 10.72 0.27 0.38 0.87 1.19 1.32 1.8 0.46 0.61 1.32 1.78 1.93 2.61 1.24 1.7 6.54 10.02 7.73 12.12 0.43 0.76 1.21 2.12 1.73 3.04 2.79 4.91 5.44 11 6.32 14.55 0.09 0.38 0.28 1.16 0.42 1.73 3.08 12.4 2.03 21.53-3.58 31.01-0.87 1.45-0.95 1.67-0.51 1.31 0.3-0.26 1.61-1.98 1.61-2.12 0-0.05 0.43-0.75 0.96-1.56 2.2-3.38 4.75-9.45 5.6-13.35 1.08-4.98 1.53-14.01 0.89-18.05-1.6-10.04-4.49-19.03-9.14-28.38-2.41-4.83-3.16-6.22-5.51-10.26-0.66-1.14-1.54-2.65-1.95-3.36-0.41-0.72-1.09-1.88-1.52-2.59-0.42-0.71-1.25-2.11-1.83-3.11-0.58-0.99-1.25-2.12-1.5-2.5-0.24-0.38-1.14-1.77-1.99-3.1-0.86-1.33-1.73-2.75-1.93-3.16-0.4-0.78-3.36-5.26-5.55-8.4-0.73-1.04-2.05-3.1-2.93-4.57-0.88-1.47-2.29-3.76-3.15-5.09-0.85-1.33-1.73-2.69-1.94-3.02-0.93-1.45-2.72-4.43-4.16-6.9-2.17-3.71-2.7-4.6-3.39-5.69-0.98-1.56-2.22-4.1-2.15-4.43 0.07-0.36 5.92-0.39 12.21-0.06 1.85 0.1 7.44 0.25 12.42 0.35 4.98 0.09 9.22 0.2 9.42 0.24 0.2 0.04 3.46 0.13 7.24 0.18 3.79 0.06 9.52 0.19 12.75 0.28 9.15 0.27 9.02 0.27 9.24 0.05 0.15-0.15 0.15-0.55 0.01-1.62-0.25-1.84-0.25-3.71 0-5.35 0.22-1.46 0.13-2.13-0.32-2.32-0.5-0.21-11.59-0.61-31.01-1.12-3.89-0.1-11.61-0.33-17.16-0.51-5.55-0.18-12.07-0.38-14.49-0.43-5.73-0.14-5.55-0.09-6.47-2.07-2.22-4.79-6.66-18.6-6.14-19.12 0.17-0.17 3.51-0.29 17.27-0.63 4.12-0.1 9.94-0.3 12.93-0.44 4.99-0.23 16.28-0.67 21.91-0.85 1.28-0.04 5.12-0.19 8.54-0.34 3.41-0.15 7.49-0.29 9.06-0.33 3.07-0.07 3.51-0.17 3.69-0.93 0.19-0.76-0.09-8.11-0.32-8.43-0.24-0.32-0.37-0.32-3.03-0.18-2.75 0.15-6.03 0.25-15.44 0.45-4.46 0.1-9.5 0.25-11.21 0.35-1.71 0.09-5.67 0.25-8.8 0.34-3.13 0.09-6.74 0.21-8.02 0.26-1.28 0.05-3.88 0.13-5.78 0.19-1.9 0.05-4.73 0.17-6.29 0.25-1.57 0.08-5.79 0.25-9.38 0.36-7.81 0.26-7.09 0.51-6.94-2.35 0.05-1.04 0.14-3.18 0.2-4.74 0.11-3.01 0.25-4.92 0.66-8.93 0.35-3.43 0.3-3.35 2.23-3.66 0.61-0.1 1.44-0.29 1.84-0.43 0.41-0.15 0.88-0.26 1.07-0.26 0.18 0 1.55-0.27 3.04-0.59 1.49-0.32 3.48-0.71 4.43-0.88 0.95-0.16 2.5-0.47 3.45-0.7 0.95-0.22 2.35-0.52 3.1-0.68 6.85-1.4 10.61-2.19 11.13-2.34 0.33-0.09 1.19-0.28 1.9-0.41 0.71-0.14 2.03-0.41 2.93-0.62 0.9-0.2 2.1-0.47 2.67-0.6 0.57-0.13 1.35-0.31 1.73-0.41 0.38-0.1 1.43-0.33 2.33-0.52 2.99-0.62 3.76-0.78 9.05-1.92 0.48-0.1 1.28-0.3 1.78-0.45 0.5-0.14 1.77-0.4 2.81-0.58 3.19-0.55 3.27-0.67 2.47-3.44-0.24-0.8-0.55-2.12-0.69-2.93-0.76-4.16-0.07-3.91-6.54-2.44-1.23 0.28-2.75 0.59-3.36 0.7-0.62 0.11-2.64 0.55-4.49 0.98-1.85 0.43-5.19 1.16-7.42 1.62-2.22 0.47-4.9 1.04-5.95 1.29-1.04 0.24-3.52 0.78-5.52 1.2-1.99 0.41-4.67 0.99-5.95 1.27-1.28 0.29-4.27 0.96-6.64 1.49-2.37 0.52-4.95 1.11-5.73 1.3-2.11 0.51-2.07 0.55-1.21-1.08 4.87-9.21 8.08-13.64 13.58-18.73 3.46-3.2 11.59-9.52 13.21-10.28 2.01-0.94 2.02-1.12 0.2-3.01-5.62-5.84-8.08-11.69-8.17-19.43-0.03-1.89-0.05-3.54-0.05-3.66-0.02-0.35-0.51-0.23-2.25 0.55zm47.82 3.03c0 0.33 0.03 0.47 0.07 0.3 0.05-0.17 0.05-0.44 0-0.6-0.04-0.17-0.07-0.03-0.07 0.3zm-38.98 0.69c0 0.52 0.04 0.73 0.08 0.47 0.04-0.26 0.04-0.69 0-0.95-0.04-0.26-0.08-0.04-0.08 0.48zm4.61 12.3c0 0.03 0.25 0.28 0.56 0.56l0.56 0.51-0.51-0.56c-0.47-0.53-0.61-0.65-0.61-0.51zm28.31 1.22c-1.84 1.9-6.12 4.28-8.73 4.87-4.31 0.97-6.67 0.83-11.54-0.69-1.04-0.32-0.84-0.1 0.24 0.27 6.28 2.16 11.72 1.52 17.08-2.02 1.48-0.98 3.9-2.99 3.61-3.01-0.05 0-0.35 0.26-0.66 0.58zm15.29 9.72c0.41 0.03 1.03 0.03 1.38 0 0.35-0.04 0.02-0.07-0.74-0.07-0.76 0-1.04 0.03-0.64 0.07zm-11.18 5.17l-0.94 1 0.99-0.95c0.92-0.87 1.07-1.04 0.94-1.04-0.02 0-0.47 0.45-0.99 0.99zm-1.47 1.64l-0.51 0.57 0.56-0.51c0.53-0.47 0.64-0.62 0.51-0.62-0.03 0-0.28 0.26-0.56 0.56zm31.37 9.62c0 0.43 0.03 0.6 0.07 0.39 0.04-0.22 0.04-0.56 0-0.78-0.04-0.21-0.07-0.04-0.07 0.39zm-35.19 0.52c0 0.52 0.03 0.73 0.07 0.47 0.04-0.26 0.04-0.69 0-0.95-0.04-0.26-0.07-0.04-0.07 0.48zm29.62 13.49c-0.71 0.68-1.06 1.07-0.78 0.87 0.51-0.36 2.31-2.12 2.15-2.11-0.04 0.01-0.66 0.56-1.37 1.24zm-23.63 0.5c3.44 3.38 8.32 5.06 13.07 4.5 2.47-0.29 7.16-1.93 7.81-2.73q0.25-0.31-0.29 0.09c-0.7 0.51-5.29 2.04-6.87 2.28-4.61 0.72-10.27-1.04-13.76-4.27l-1.6-1.49zm25.82 14.08c0.22 0.04 0.57 0.04 0.78 0 0.21-0.05 0.04-0.08-0.39-0.08-0.43 0-0.6 0.03-0.39 0.08zm1.73 0.17c0.21 0.04 0.56 0.04 0.77 0 0.22-0.04 0.04-0.08-0.38-0.08-0.43 0-0.6 0.04-0.39 0.08zm-4.53 0.22c-0.47 0.12-0.48 0.13-0.09 0.14 0.24 0.01 0.59-0.06 0.78-0.14 0.43-0.18 0.03-0.18-0.69 0zm-6.22 3.32l-0.68 0.73 0.73-0.68c0.69-0.63 0.82-0.78 0.69-0.78-0.03 0-0.36 0.33-0.74 0.73zm20.71 1.17c0.47 0.47 0.89 0.86 0.94 0.86 0.04 0-0.3-0.39-0.77-0.86-0.46-0.48-0.89-0.87-0.93-0.87-0.05 0 0.29 0.39 0.76 0.87zm-22.76 0.89c-0.44 0.49-0.89 1.05-0.99 1.25-0.23 0.44-0.24 0.45 0.96-0.98 1.16-1.37 1.17-1.55 0.03-0.27zm1.37 20.49c0.37 0.38 0.71 0.69 0.76 0.69 0.05 0-0.22-0.31-0.59-0.69-0.37-0.38-0.71-0.69-0.76-0.69-0.04 0 0.22 0.31 0.59 0.69zm21.03-0.13l-0.5 0.57 0.56-0.51c0.52-0.47 0.64-0.62 0.5-0.62-0.03 0-0.28 0.26-0.56 0.56zm-18.36 2.12c0 0.11 1.41 0.81 1.48 0.73 0.04-0.03-0.28-0.23-0.7-0.44-0.43-0.21-0.78-0.34-0.78-0.29zm3.11 1.54c0 0.38 2.46 0.78 4.55 0.76l2.26-0.04-2.58-0.11c-1.76-0.08-2.83-0.2-3.35-0.4-0.82-0.31-0.88-0.33-0.88-0.21zm7.24 0.44c-0.34 0.11-0.36 0.14-0.08 0.14 0.19 0.01 0.5-0.06 0.69-0.14 0.44-0.19-0.02-0.19-0.61 0zm-6.93 9.11c-0.16 0.07 0.74 0.12 1.99 0.13 1.63 0.01 2.01-0.02 1.32-0.11-1.22-0.16-2.93-0.17-3.31-0.02zm10.64 3.66c0.47 0.47 0.89 0.86 0.94 0.86 0.05 0-0.3-0.39-0.76-0.86-0.47-0.48-0.89-0.87-0.94-0.87-0.05 0 0.3 0.39 0.76 0.87zm-18.57 0.99c-1.21 1.3-2.43 3.88-2.16 4.56q0.09 0.2 0.11-0.08c0.05-1.09 1.15-3.32 2.22-4.48 0.25-0.26 0.4-0.48 0.36-0.48-0.05 0-0.29 0.22-0.53 0.48zm-2.49 7.8c0 1.09 0.03 1.54 0.06 0.99 0.03-0.54 0.03-1.43 0-1.98-0.03-0.54-0.06-0.1-0.06 0.99zm24.82 0c0 0.53 0.04 0.74 0.07 0.48 0.04-0.26 0.04-0.69 0-0.95-0.03-0.26-0.07-0.05-0.07 0.47zm-24.53 3.47c-0.01 0.32 0.34 1.41 0.43 1.32 0.03-0.03-0.05-0.4-0.18-0.83-0.13-0.42-0.24-0.64-0.25-0.49zm0.69 1.97c0 0.09 0.11 0.36 0.25 0.6 0.13 0.24 0.24 0.35 0.24 0.26 0-0.1-0.11-0.37-0.24-0.61-0.14-0.23-0.25-0.35-0.25-0.25zm-11.09 4.52c0.21 0.04 0.52 0.04 0.69-0.01 0.16-0.04-0.01-0.07-0.39-0.07-0.38 0-0.52 0.03-0.3 0.08zm15.99 0.99c1.86 1.65 7.7 2.45 10.19 1.39 1.45-0.62 1.36-0.74-0.1-0.15-2.27 0.92-7.9 0.21-9.96-1.25l-0.64-0.45zm-10.02 1.17c0.18 0.12 0.76 0.55 1.29 0.96l0.96 0.74-0.77-0.72c-0.43-0.39-1.01-0.82-1.29-0.96q-0.46-0.21-0.19-0.02zm-13.36 1.08c-0.41 0.42-0.72 0.77-0.67 0.77 0.05 0 0.43-0.35 0.85-0.77 0.42-0.43 0.72-0.78 0.67-0.78-0.04 0-0.43 0.35-0.85 0.78zm-23.07 3.65c0.17 0.05 0.44 0.05 0.61 0 0.16-0.04 0.03-0.08-0.3-0.08-0.34 0-0.47 0.04-0.31 0.08zm2.39 0.04c1.22 0.23 4.79 2.39 4.82 2.92 0.01 0.06 0.21 0.35 0.45 0.63l0.44 0.52-0.27-0.53c-0.71-1.46-3.77-3.51-5.4-3.62l-0.83-0.06zm-3.59 0.13c0.16 0.04 0.43 0.04 0.6 0 0.17-0.05 0.03-0.08-0.3-0.08-0.33 0-0.47 0.03-0.3 0.08zm-5.05 3.54c-0.19 0.31-0.34 0.64-0.34 0.72 0 0.2 0.02 0.17 0.48-0.63 0.45-0.79 0.33-0.86-0.14-0.09zm30.96 8c2.02 1.63 7.01 2.36 9.02 1.31 0.98-0.52 0.93-0.62-0.09-0.16-1.93 0.86-5.2 0.55-7.89-0.76-0.76-0.37-1.23-0.54-1.04-0.39zm10.7 0.24c-0.29 0.19-0.44 0.34-0.35 0.34 0.18 0 1.11-0.67 0.95-0.68-0.05 0-0.32 0.15-0.6 0.34zm-33.03 4.66c-0.35 0.11-0.37 0.14-0.09 0.14 0.19 0 0.5-0.06 0.69-0.14 0.44-0.19-0.01-0.19-0.6 0zm-1.43 0.29c0.22 0.04 0.53 0.04 0.69 0 0.17-0.04-0.01-0.08-0.39-0.08-0.37 0.01-0.51 0.04-0.3 0.08zm-41.31 7.73c0 0.38 0.04 0.51 0.08 0.3 0.04-0.22 0.04-0.53 0-0.69-0.05-0.17-0.08 0.01-0.08 0.39zm-16.9 4.35c0.26 0.04 0.69 0.04 0.95 0 0.26-0.04 0.04-0.07-0.48-0.07-0.52 0-0.73 0.03-0.47 0.07zm27.55 0.41c-0.6 0.53-0.6 0.53-0.05 0.16 0.31-0.2 0.61-0.44 0.66-0.53 0.17-0.27 0.03-0.19-0.61 0.37zm-2.24 1.22c-0.24 0.09-0.93 0.24-1.55 0.32l-1.12 0.15 1.21-0.05c0.69-0.03 1.43-0.17 1.72-0.33 0.57-0.31 0.41-0.37-0.26-0.09zm-33.45 1.72c-1.15 1.17-2.09 2.5-2.4 3.41-0.31 0.91-0.22 1.05 0.12 0.19 0.46-1.16 1.11-2.11 2.38-3.45 1.4-1.49 1.34-1.6-0.1-0.15zm16.81 0.49c0.37 0.38 0.71 0.69 0.76 0.69 0.04 0-0.22-0.31-0.59-0.69-0.37-0.38-0.71-0.69-0.76-0.69-0.05 0 0.22 0.31 0.59 0.69zm-19.83 4.93c-0.06 0.25-0.08 0.49-0.04 0.53 0.04 0.04 0.13-0.13 0.19-0.38 0.06-0.25 0.08-0.49 0.04-0.54-0.04-0.04-0.12 0.14-0.19 0.39zm-0.39 3.01c0 0.61 0.03 0.87 0.07 0.56 0.04-0.31 0.04-0.82 0-1.12-0.04-0.31-0.07-0.06-0.07 0.56zm24.96 0.69c0.33 0.18 0.68 0.33 0.78 0.33 0.09 0-0.1-0.15-0.44-0.33-0.33-0.19-0.68-0.33-0.77-0.33-0.1 0 0.1 0.14 0.43 0.33zm5.56 2.24c0.84 0.44 1.07 0.44 0.34 0-0.31-0.19-0.66-0.35-0.77-0.35-0.12 0 0.08 0.16 0.43 0.35zm1.34 0.55c2.11 1 2.98 1.36 3.15 1.29q0.24-0.09 0-0.1c-0.12-0.01-0.78-0.28-1.47-0.6-0.69-0.32-1.44-0.63-1.68-0.69l-0.43-0.11zm153.17 1.75c0 0.02-0.33 0.35-0.73 0.73l-0.74 0.68 0.68-0.73c0.64-0.68 0.79-0.81 0.79-0.68zm-146.96 0.72c0 0.12 1.4 0.81 1.48 0.74 0.03-0.04-0.28-0.24-0.71-0.45-0.42-0.2-0.77-0.33-0.77-0.29zm-34.33 2.58c0.89 0.93 2.05 1.65 2.67 1.65 0.3 0 1.27 0.36 2.17 0.81 1.76 0.87 1.91 0.89 4.39 0.67 1.89-0.18 4.04-0.94 4.92-1.75 1.27-1.19 2.15-1.33 3.73-0.6 0.62 0.29 1.17 0.52 1.23 0.52 0.06 0 0.85 0.34 1.75 0.76 3.21 1.48 4.01 1.83 4.17 1.83 0.09 0 0.54 0.19 1 0.42 1.11 0.56 5.79 2.57 6.64 2.85 0.37 0.12 1.19 0.48 1.81 0.78 0.63 0.31 1.8 0.8 2.61 1.09 1.38 0.48 3.02 1.13 4.22 1.67 0.29 0.12 0.95 0.4 1.47 0.61 2.09 0.84 4.24 1.78 4.42 1.92 0.11 0.09 0.81 0.38 1.55 0.65 0.75 0.27 2.37 0.94 3.6 1.48 1.24 0.54 2.63 1.13 3.11 1.3 3.34 1.23 7.45 2.89 8.59 3.47 0.38 0.19 1.36 0.61 2.17 0.93 0.82 0.31 2.02 0.82 2.67 1.11 0.65 0.3 1.21 0.51 1.25 0.47 0.07-0.07-2.53-1.33-2.75-1.33-0.07 0-1.81-0.74-3.87-1.65-2.06-0.91-4.72-2.05-5.91-2.52-1.18-0.47-3.05-1.24-4.14-1.7-1.1-0.46-2.84-1.18-3.88-1.61-1.04-0.42-3.33-1.4-5.08-2.18-1.76-0.77-4.4-1.9-5.87-2.5-1.47-0.6-4.4-1.8-6.52-2.66-2.11-0.86-4.52-1.87-5.34-2.24-0.83-0.36-2.75-1.19-4.27-1.82-1.52-0.64-3.44-1.48-4.28-1.86-2-0.9-2.74-0.85-3.91 0.29-2.17 2.13-7.04 2.71-9.94 1.2-0.62-0.32-1.36-0.59-1.64-0.59-0.67 0-1.31-0.34-2.05-1.12-0.33-0.34-0.76-0.71-0.95-0.81-0.2-0.11-0.09 0.08 0.26 0.46zm39.65-0.25c0.41 0.19 0.8 0.34 0.86 0.34 0.22-0.02-1.1-0.67-1.35-0.67-0.14-0.01 0.08 0.15 0.49 0.33zm2.44 1.12c0.24 0.14 0.7 0.34 1.04 0.45 0.33 0.11 1.08 0.42 1.67 0.69 0.59 0.28 1.16 0.5 1.27 0.5 0.1 0 0.74 0.27 1.41 0.6 0.68 0.34 1.34 0.61 1.47 0.61 0.13 0 1.35 0.5 2.71 1.12 2.6 1.18 3.68 1.54 1.47 0.49-2.56-1.21-3.05-1.43-5.26-2.3-1.23-0.48-2.67-1.06-3.19-1.29-2.41-1.04-3.56-1.42-2.59-0.87zm-56.92 1.28c-0.24 0.07 0.46 0.09 1.55 0.05 4.85-0.17 9.11 1.83 11.88 5.57 0.21 0.29 0.31 0.36 0.22 0.17-1.9-3.88-9.3-7.03-13.65-5.79zm-5.7 2.44l-0.6 0.53 0.65-0.46q0.85-0.61 0.6-0.6c-0.03 0-0.32 0.24-0.65 0.53zm-1.86 1.48l-0.98 0.98 1.04-0.92c0.57-0.51 1.06-0.95 1.1-0.98q0.06-0.05-0.06-0.05c-0.07 0-0.57 0.44-1.1 0.97zm77.42 0.21c0.14 0.08 0.45 0.21 0.69 0.27q0.44 0.12 0.17-0.04c-0.14-0.09-0.45-0.22-0.69-0.28q-0.45-0.12-0.17 0.05zm1.2 0.43c0 0.04 0.25 0.17 0.56 0.27 0.31 0.11 0.48 0.13 0.39 0.04-0.2-0.19-0.95-0.43-0.95-0.31zm-80.22 1.19c-0.8 1.1-1.67 2.98-1.47 3.19 0.04 0.03 0.2-0.33 0.37-0.82 0.16-0.49 0.63-1.39 1.03-2 0.84-1.24 0.89-1.49 0.07-0.37zm87.22 1.67c0.65 0.29 1.1 0.71 1.85 1.74 0.46 0.63 0.14 0.03-0.43-0.82-0.53-0.79-0.8-0.97-1.6-1.14-0.43-0.09-0.4-0.05 0.18 0.22zm-89.74 5.44c0 0.57 0.04 0.79 0.07 0.48 0.04-0.31 0.04-0.78 0-1.04-0.04-0.26-0.07 0-0.07 0.56zm27.73 0.29c-0.02 0.59 0.57 1 1.84 1.26 0.69 0.14 1.39 0.33 1.55 0.42 0.17 0.09 0.85 0.33 1.52 0.53 0.66 0.21 1.44 0.48 1.72 0.6 0.62 0.26 4.88 1.8 6.47 2.33 3.16 1.06 5.64 1.95 6.93 2.48 0.79 0.32 2.21 0.84 3.16 1.15 0.95 0.31 2.35 0.82 3.1 1.13 0.76 0.31 2.67 0.99 4.23 1.51 1.57 0.53 3.7 1.27 4.74 1.64 1.05 0.38 2.52 0.88 3.28 1.12 0.76 0.24 2.35 0.79 3.54 1.24 1.18 0.44 3.21 1.18 4.49 1.63 1.29 0.45 2.49 0.9 2.68 1 0.18 0.1 1.69 0.62 3.35 1.16 1.66 0.54 3.44 1.16 3.97 1.38 0.52 0.21 2.11 0.76 3.53 1.21 1.43 0.46 3.59 1.21 4.8 1.68 1.22 0.47 2.25 0.82 2.29 0.78 0.1-0.1-3.64-1.61-5.88-2.35-1.14-0.38-2.81-0.98-3.71-1.32-0.9-0.34-1.87-0.69-2.15-0.78-0.66-0.19-5.25-1.81-7.77-2.72-2.9-1.07-7.46-2.7-8.71-3.14-0.61-0.21-2.17-0.76-3.45-1.21-1.28-0.46-3.14-1.1-4.14-1.43-0.99-0.33-2.58-0.89-3.53-1.24-0.95-0.35-2.89-1.05-4.31-1.55-1.43-0.49-3.56-1.25-4.75-1.68-2.44-0.87-4.51-1.59-5.78-1.98-0.93-0.3-4.91-1.7-6.98-2.47-1.82-0.67-3.37-1.14-4.54-1.37-0.89-0.18-1.04-0.27-1.25-0.75-0.13-0.3-0.24-0.42-0.24-0.26zm70.01 6.16c0.7 1.39 0.69 1.47-0.2 1.35-0.76-0.1-0.59 0.09 0.26 0.29 0.71 0.17 0.77-0.27 0.19-1.47-0.27-0.57-0.55-1.08-0.63-1.13-0.08-0.05 0.09 0.39 0.38 0.96zm-73.94 3.47c-0.36 0.26-0.96 0.8-1.34 1.2-1.31 1.38-2.13 1.84-4.32 2.48-5.36 1.55-9.47 0.65-14.06-3.06-0.24-0.2-0.09-0.02 0.34 0.39 5.33 5.04 13.59 5.04 18.5 0 1.32-1.36 1.41-1.38 3.13-0.65 0.68 0.3 1.63 0.66 2.1 0.8 0.48 0.14 0.94 0.32 1.04 0.39 0.09 0.07 0.44 0.22 0.77 0.34 0.33 0.12 1.81 0.64 3.28 1.16 1.47 0.52 3.02 1.05 3.45 1.17 0.43 0.12 2.25 0.74 4.05 1.38 4.26 1.5 13.09 4.67 14.75 5.27 0.71 0.26 2.42 0.85 3.8 1.3 1.37 0.45 3.31 1.11 4.31 1.47 0.99 0.36 2.62 0.94 3.62 1.29 1 0.35 2.47 0.89 3.28 1.2 1.21 0.48 4.46 1.67 9.57 3.54 3.32 1.21 12.94 4.47 22.6 7.67q0.41 0.15 0.07-0.06c-0.34-0.23-7.19-2.69-11.89-4.28-2.31-0.78-6.13-2.14-10.09-3.59-1.71-0.63-4.62-1.67-6.47-2.32-3.65-1.29-9.23-3.29-10.61-3.81-0.47-0.18-2.76-0.98-5.08-1.79-2.33-0.8-6.09-2.13-8.37-2.95-2.28-0.82-4.88-1.75-5.78-2.07-0.9-0.31-2.65-0.93-3.88-1.38-1.23-0.45-4.14-1.46-6.47-2.25-4.87-1.67-6.71-2.32-7.67-2.73-1.44-0.62-1.92-0.64-2.63-0.11zm71.53 14.81c0.15 0.08 0.5 0.2 0.78 0.26q0.5 0.11 0.26-0.03c-0.14-0.09-0.49-0.21-0.78-0.27q-0.5-0.1-0.26 0.04zm-92.07 1.2c-0.22 0.07 0.44 0.12 1.46 0.12 1.59 0 2.06 0.07 3.16 0.46 2.05 0.73 2.45 0.94 3.28 1.7 0.43 0.39 1.1 0.94 1.48 1.23 0.39 0.28 0.88 0.82 1.09 1.19 0.21 0.38 0.42 0.68 0.47 0.68 0.32 0-0.88-1.55-1.66-2.16-0.52-0.4-1.17-0.97-1.44-1.26-0.28-0.29-0.94-0.69-1.47-0.9-0.53-0.2-1.35-0.53-1.82-0.72-0.9-0.36-3.78-0.58-4.55-0.34zm101.33 1.93c0.11 0.14 0.23 0.42 0.28 0.61 0.08 0.32 0.09 0.32 0.1-0.03 0.02-0.2-0.11-0.47-0.28-0.6-0.26-0.21-0.27-0.2-0.1 0.02zm-108.01 1.42l-0.68 0.74 0.73-0.68c0.4-0.38 0.73-0.71 0.73-0.74 0-0.13-0.15 0-0.78 0.68zm-1.76 2.07c-0.26 0.33-0.77 1.36-0.7 1.43 0.03 0.03 0.26-0.32 0.51-0.79 0.45-0.85 0.51-1.04 0.19-0.64zm110.23 1.51c0 0.81 0.03 1.14 0.07 0.74 0.04-0.41 0.04-1.07 0-1.47-0.04-0.4-0.07-0.07-0.07 0.73zm-0.19 2.25c0 0.33 0.04 0.46 0.08 0.3 0.04-0.17 0.04-0.44 0-0.61-0.04-0.16-0.08-0.03-0.08 0.31zm-111.58 2.32c0 0.86 0.03 1.23 0.07 0.83 0.03-0.4 0.03-1.1 0-1.55-0.04-0.46-0.07-0.13-0.07 0.72zm0.8 3.95c0 0.19 0.52 1.14 0.62 1.14 0.04 0-0.05-0.25-0.2-0.56-0.32-0.63-0.42-0.76-0.42-0.58zm1.89 3.18c1.82 2.6 5.03 4.09 8.81 4.07h2.5l1.47-0.7c0.8-0.39 1.77-0.99 2.15-1.35l0.69-0.64-0.86 0.6c-4.18 2.87-9.98 2.25-14.05-1.52-0.81-0.75-1.01-0.88-0.71-0.46zm16.13 0.94l-0.51 0.56 0.56-0.51c0.53-0.47 0.64-0.61 0.51-0.61-0.03 0-0.28 0.25-0.56 0.56z"/>
	</g>
</svg>